<svg width="90" height="80" viewBox="0 0 90 80" fill="none" xmlns="http://www.w3.org/2000/svg">
<path d="M60.167 78.5938L59.5293 78.4111L30.1953 70.0156L29.833 69.9121V38.2871L30.748 39.6436C34.0987 44.6142 36.9359 48.5122 39.2617 51.3428L39.5732 51.6768C41.1487 53.2914 42.9523 54.0771 45 54.0771C47.1841 54.0771 49.0902 53.183 50.7383 51.3428C53.0641 48.5122 55.9013 44.6142 59.252 39.6436L60.167 38.2871V78.5938ZM45.0098 0.5C50.3246 0.604118 54.7795 2.43119 58.3398 5.98828C61.9001 9.54533 63.7287 13.9964 63.833 19.3066L63.834 19.3213L63.833 19.335C63.7275 22.2843 62.6764 25.6655 60.7227 29.4668C58.776 33.2543 56.5219 36.9388 53.9619 40.5195C51.5149 43.9829 49.4203 46.7903 47.6797 48.9385L47.6709 48.9492C46.9674 49.7692 46.0665 50.1924 45 50.1924C43.9335 50.1924 43.0326 49.7692 42.3291 48.9492L42.3193 48.9385V48.9375C40.5789 46.7894 38.4848 43.9825 36.0381 40.5195L35.0918 39.1719C32.9189 36.0161 30.9807 32.7808 29.2773 29.4668C27.3236 25.6655 26.2725 22.2843 26.167 19.335L26.166 19.3213L26.167 19.3066C26.2713 13.9964 28.0999 9.54534 31.6602 5.98828C35.2205 2.43119 39.6754 0.604118 44.9902 0.5H45.0098ZM45 12.4902C43.4015 12.4902 42.1118 13.0474 41.0908 14.1602L41.0762 14.1758L41.0596 14.1904C39.9459 15.2105 39.3887 16.4991 39.3887 18.0957C39.3887 19.5925 39.8785 20.8187 40.8574 21.8066L41.0596 22.001L41.0762 22.0156L41.0908 22.0312C42.1118 23.144 43.4015 23.7012 45 23.7012C46.5985 23.7012 47.8882 23.144 48.9092 22.0312L48.9238 22.0156L48.9404 22.001C50.0541 20.9809 50.6113 19.6923 50.6113 18.0957C50.6113 16.4991 50.0541 15.2105 48.9404 14.1904L48.9238 14.1758L48.9092 14.1602C47.8882 13.0474 46.5985 12.4902 45 12.4902ZM25.9443 70.3311L25.6309 70.457L6.22754 78.2422L6.20898 78.25L6.18848 78.2559C4.75425 78.6967 3.46583 78.5489 2.39941 77.7334C1.22757 77.0198 0.61101 75.8418 0.500977 74.3027L0.5 74.2852V33.0391L0.500977 33.0234C0.613635 31.2225 1.47841 29.8909 3.06836 29.0967L3.08691 29.0869L3.10645 29.0791L21.8984 21.5996L22.4658 21.374L22.5752 21.9746C22.9751 24.1722 23.5743 26.2684 24.3711 28.2637L25.9443 31.4102V70.3311ZM89.5 65.582L89.499 65.5977C89.4436 66.4831 89.2057 67.2614 88.7637 67.9092C88.3206 68.5584 87.6928 69.0476 86.9053 69.3848L86.8936 69.3896V69.3887L64.7412 78.2422L64.0557 78.5166V31.4102L65.583 28.3555V27.9629L65.7295 27.8164C65.7321 27.8138 65.7343 27.8108 65.7363 27.8086V27.5254L66.0518 27.3994L83.7744 20.3779L83.7793 20.376C85.2154 19.8243 86.5223 19.9082 87.6055 20.7383C88.7559 21.5428 89.3856 22.7025 89.498 24.1631L89.5 24.1816V65.582Z" fill="currentColor" stroke="#D9D9D9"/>
</svg>
